<svg width="80" height="23" viewBox="0 0 80 23" fill="none" xmlns="http://www.w3.org/2000/svg">
<path d="M0.484375 18V0.499999H4.28438V18H0.484375ZM15.576 4.175C17.1093 4.175 18.3176 4.69167 19.201 5.725C20.101 6.74167 20.551 8.10833 20.551 9.825V18H16.901V10.4C16.901 8.38333 16.1176 7.375 14.551 7.375C13.9343 7.375 13.3926 7.51667 12.926 7.8C12.476 8.08333 12.126 8.49167 11.876 9.025C11.6426 9.55833 11.526 10.1833 11.526 10.9V18H7.87598V4.5H10.376L11.101 6.175C11.351 5.85833 11.6343 5.58333 11.951 5.35C12.2843 5.1 12.6426 4.89167 13.026 4.725C13.4093 4.54167 13.8093 4.40833 14.226 4.325C14.6593 4.225 15.1093 4.175 15.576 4.175ZM45.4695 18H41.6195L39.8945 6.575L34.6695 17.975H33.7445L28.5195 6.575L26.7945 18H22.9195L25.6695 0.499999H29.4695L34.1945 11.225L38.9445 0.499999H42.7445L45.4695 18ZM58.9889 4.475H61.7139V17.975H58.8389L58.5389 16.775C57.3055 17.8417 55.8472 18.375 54.1639 18.375C52.1305 18.375 50.4389 17.7 49.0889 16.35C47.7555 14.9833 47.0889 13.275 47.0889 11.225C47.0889 9.19167 47.7555 7.5 49.0889 6.15C50.4389 4.8 52.1305 4.125 54.1639 4.125C55.8805 4.125 57.3555 4.675 58.5889 5.775L58.9889 4.475ZM51.8139 13.875C52.5139 14.575 53.3889 14.925 54.4389 14.925C55.5055 14.925 56.3889 14.575 57.0889 13.875C57.7889 13.175 58.1389 12.2917 58.1389 11.225C58.1389 10.1583 57.7889 9.275 57.0889 8.575C56.3889 7.875 55.5139 7.525 54.4639 7.525C53.7639 7.525 53.1305 7.69167 52.5639 8.025C52.0139 8.34167 51.5805 8.78333 51.2639 9.35C50.9472 9.9 50.7889 10.525 50.7889 11.225C50.7889 12.2917 51.1305 13.175 51.8139 13.875ZM72.5996 4.125C74.6329 4.125 76.3163 4.8 77.6496 6.15C78.9996 7.5 79.6746 9.2 79.6746 11.25C79.6746 13.3 78.9996 15.0083 77.6496 16.375C76.2996 17.725 74.6163 18.4 72.5996 18.4C71.2163 18.4 69.9746 18.025 68.8746 17.275V22.875H65.2246V4.5H67.6496L68.2746 5.725C69.4746 4.65833 70.9163 4.125 72.5996 4.125ZM69.6496 13.9C70.3496 14.6 71.2246 14.95 72.2746 14.95C73.3413 14.95 74.2246 14.6 74.9246 13.9C75.6246 13.2 75.9746 12.3167 75.9746 11.25C75.9746 10.55 75.8163 9.91667 75.4996 9.35C75.1829 8.78333 74.7413 8.34167 74.1746 8.025C73.6246 7.70833 72.9996 7.55 72.2996 7.55C71.5996 7.55 70.9663 7.70833 70.3996 8.025C69.8329 8.34167 69.3913 8.78333 69.0746 9.35C68.7746 9.91667 68.6246 10.55 68.6246 11.25C68.6246 12.3167 68.9663 13.2 69.6496 13.9Z" fill="#A5E81F"/>
</svg>
