<svg width="148" height="165" viewBox="0 0 148 165" fill="none" xmlns="http://www.w3.org/2000/svg">
<path d="M117.936 44.2349H101.449C101.512 40.5491 100.841 36.8876 99.4747 33.4639C98.1081 30.0403 96.0734 26.923 93.4893 24.294C90.9053 21.665 87.8235 19.577 84.4239 18.1517C81.0243 16.7263 77.3749 15.9922 73.6886 15.9922C70.0023 15.9922 66.3529 16.7263 62.9533 18.1517C59.5537 19.577 56.4719 21.665 53.8879 24.294C51.3038 26.923 49.2692 30.0403 47.9027 33.4639C46.5361 36.8876 45.865 40.5491 45.9285 44.2349H29.4414C29.4414 32.503 34.1018 21.2517 42.3974 12.9561C50.6931 4.66042 61.9444 0 73.6762 0C85.4081 0 96.6594 4.66042 104.955 12.9561C113.251 21.2517 117.911 32.503 117.911 44.2349H117.936Z" fill="#A5E81F"/>
<path d="M147.39 161.764C147.391 162.179 147.31 162.59 147.151 162.974C146.993 163.357 146.761 163.706 146.467 163.999C146.174 164.293 145.825 164.525 145.442 164.683C145.058 164.842 144.647 164.923 144.232 164.921H3.16043C2.32306 164.921 1.51997 164.589 0.927866 163.997C0.335761 163.405 0.00308294 162.602 0.00308294 161.764C-0.00102765 161.701 -0.00102765 161.638 0.00308294 161.575V161.253L1.1407 151.196L12.9867 47.0716C13.0631 46.3497 13.3829 45.6752 13.8934 45.1591C14.1866 44.8657 14.535 44.633 14.9184 44.4746C15.3017 44.3161 15.7127 44.235 16.1275 44.2358H29.4161C29.4033 51.7161 31.2985 59.076 34.9227 65.6196L36.3736 68.0927L48.4504 88.1822L70.9059 125.798L71.0543 126.053C71.3236 126.471 71.6882 126.819 72.1181 127.068C72.5481 127.317 73.031 127.461 73.5273 127.487H73.6922C74.186 127.489 74.6733 127.374 75.1145 127.152C75.5556 126.93 75.9382 126.607 76.2312 126.21L76.5363 125.699L98.8515 88.1245L109.486 70.2113L113.607 63.2372C116.424 57.3141 117.881 50.8359 117.869 44.2771H131.183C131.754 44.2733 132.316 44.4246 132.808 44.715C133.3 45.0053 133.704 45.4238 133.977 45.9258C134.105 46.1676 134.199 46.4254 134.258 46.6924L134.34 47.3931L146.145 151.171L147.307 161.418C147.381 161.55 147.39 161.657 147.39 161.764Z" fill="#A5E81F"/>
<path d="M134.405 47.3887L134.322 46.688C134.379 46.9172 134.407 47.1526 134.405 47.3887Z" fill="#A5E81F"/>
<path d="M101.464 44.2358C101.338 51.5154 98.3584 58.4545 93.166 63.5582C87.9736 68.6618 80.9842 71.5217 73.7036 71.5217C66.4229 71.5217 59.4335 68.6618 54.2411 63.5582C49.0488 58.4545 46.0688 51.5154 45.9434 44.2358H101.464Z" fill="#A5E81F"/>
</svg>
