<svg width="80" height="80" viewBox="0 0 80 80" fill="none" xmlns="http://www.w3.org/2000/svg">
<g id="search" clip-path="url(#clip0_4099_8846)">
<path id="Vector" d="M79.5 74.7463L58.915 54.1614C64.2622 47.6216 66.8912 39.2768 66.2583 30.8531C65.6254 22.4293 61.779 14.5711 55.5146 8.90376C49.2503 3.23645 41.0473 0.193681 32.6024 0.404829C24.1576 0.615977 16.1169 4.06489 10.1436 10.0382C4.17036 16.0115 0.721446 24.0521 0.510298 32.497C0.29915 40.9418 3.34192 49.1448 9.00923 55.4092C14.6765 61.6735 22.5348 65.5199 30.9585 66.1528C39.3823 66.7858 47.7271 64.1567 54.2668 58.8096L74.8518 79.3945L79.5 74.7463ZM33.478 59.6708C28.2767 59.6708 23.1922 58.1285 18.8675 55.2388C14.5428 52.3491 11.1721 48.2419 9.18162 43.4365C7.19117 38.6311 6.67037 33.3434 7.6851 28.242C8.69982 23.1407 11.2045 18.4548 14.8824 14.7769C18.5602 11.099 23.2461 8.59435 28.3475 7.57963C33.4489 6.56491 38.7366 7.0857 43.542 9.07615C48.3473 11.0666 52.4546 14.4373 55.3442 18.762C58.2339 23.0868 59.7763 28.1713 59.7763 33.3726C59.7685 40.3449 56.9953 47.0294 52.0651 51.9596C47.1349 56.8898 40.4504 59.663 33.478 59.6708Z" fill="#767676"/>
<path id="Vector_2" d="M48.5486 32.3682C47.4247 29.9104 43.0173 21.8958 33.4166 21.8958C23.8159 21.8958 19.4086 29.9104 18.2846 32.3682C18.1338 32.6976 18.0557 33.0556 18.0557 33.4179C18.0557 33.7801 18.1338 34.1382 18.2846 34.4675C19.4086 36.9228 23.8159 44.9374 33.4166 44.9374C43.0173 44.9374 47.4247 36.9228 48.5486 34.465C48.6992 34.136 48.7771 33.7784 48.7771 33.4166C48.7771 33.0548 48.6992 32.6972 48.5486 32.3682ZM33.4166 42.3772C25.3431 42.3772 21.5758 35.5083 20.6157 33.4307C21.5758 31.3249 25.3431 24.4559 33.4166 24.4559C41.471 24.4559 45.2395 31.2955 46.2175 33.4166C45.2395 35.5377 41.471 42.3772 33.4166 42.3772Z" fill="#A5E81F"/>
<path id="Vector_3" d="M33.4166 27.0161C32.1507 27.0161 30.9132 27.3915 29.8607 28.0948C28.8081 28.7981 27.9878 29.7977 27.5033 30.9672C27.0189 32.1368 26.8921 33.4237 27.1391 34.6652C27.3861 35.9068 27.9956 37.0473 28.8908 37.9424C29.7859 38.8375 30.9263 39.4471 32.1679 39.6941C33.4095 39.941 34.6964 39.8143 35.8659 39.3298C37.0355 38.8454 38.0351 38.025 38.7384 36.9725C39.4417 35.9199 39.817 34.6825 39.817 33.4166C39.815 31.7197 39.14 30.0929 37.9401 28.893C36.7403 27.6931 35.1135 27.0181 33.4166 27.0161ZM33.4166 37.2569C32.657 37.2569 31.9146 37.0316 31.283 36.6097C30.6515 36.1877 30.1593 35.5879 29.8686 34.8862C29.578 34.1845 29.5019 33.4123 29.6501 32.6674C29.7983 31.9224 30.164 31.2382 30.7011 30.7011C31.2382 30.164 31.9224 29.7983 32.6674 29.6501C33.4123 29.5019 34.1845 29.578 34.8862 29.8686C35.5879 30.1593 36.1877 30.6515 36.6097 31.283C37.0316 31.9146 37.2569 32.657 37.2569 33.4166C37.2569 34.4351 36.8523 35.4119 36.1321 36.1321C35.4119 36.8523 34.4351 37.2569 33.4166 37.2569Z" fill="#A5E81F"/>
</g>
<defs>
<clipPath id="clip0_4099_8846">
<rect width="79" height="79" fill="white" transform="translate(0.5 0.5)"/>
</clipPath>
</defs>
</svg>
