<svg width="20" height="20" viewBox="0 0 20 20" xmlns="http://www.w3.org/2000/svg">
    <path d="M10 9.98377C10.6593 9.98377 11.3037 9.78849 11.8519 9.42263C12.4001 9.05677 12.8273 8.53676 13.0796 7.92836C13.3319 7.31996 13.3979 6.65049 13.2693 6.00461C13.1407 5.35873 12.8232 4.76546 12.357 4.29981C11.8908 3.83416 11.2969 3.51704 10.6503 3.38857C10.0037 3.2601 9.33348 3.32603 8.72439 3.57804C8.1153 3.83005 7.59471 4.25681 7.22844 4.80436C6.86216 5.35191 6.66667 5.99565 6.66667 6.65418C6.66667 7.53724 7.01786 8.38414 7.64298 9.00855C8.2681 9.63297 9.11594 9.98377 10 9.98377ZM10 4.98939C10.3296 4.98939 10.6519 5.08703 10.926 5.26996C11.2 5.45289 11.4137 5.71289 11.5398 6.01709C11.6659 6.32129 11.699 6.65603 11.6346 6.97897C11.5703 7.3019 11.4116 7.59854 11.1785 7.83137C10.9454 8.06419 10.6485 8.22275 10.3252 8.28699C10.0018 8.35122 9.66674 8.31825 9.36219 8.19225C9.05765 8.06625 8.79735 7.85286 8.61422 7.57909C8.43108 7.30532 8.33333 6.98345 8.33333 6.65418C8.33333 6.21265 8.50893 5.7892 8.82149 5.47699C9.13405 5.16478 9.55797 4.98939 10 4.98939ZM13.3333 18.3327L20 19.9542V11.2182C19.9998 10.682 19.8269 10.1602 19.5068 9.72978C19.1867 9.2994 18.7364 8.98335 18.2225 8.8284L16.4725 8.24572C16.6005 7.72653 16.6657 7.19387 16.6667 6.65917C16.6667 4.89305 15.9643 3.19926 14.714 1.95043C13.4638 0.70159 11.7681 0 10 0C8.23189 0 6.5362 0.70159 5.28596 1.95043C4.03571 3.19926 3.33333 4.89305 3.33333 6.65917C3.3358 6.99707 3.36365 7.33431 3.41667 7.66804C3.03822 7.51734 2.62858 7.46156 2.22356 7.50559C1.81854 7.54963 1.4305 7.69212 1.09337 7.92062C0.756246 8.14911 0.480311 8.45664 0.289705 8.81631C0.0990992 9.17598 -0.000369342 9.57682 1.03053e-06 9.98377V18.1013L6.6525 20L13.3333 18.3327ZM6.46417 3.12815C7.40354 2.20315 8.67078 1.68641 9.98985 1.6905C11.3089 1.69458 12.5729 2.21917 13.5065 3.14997C14.4402 4.08077 14.9677 5.34237 14.9743 6.65995C14.9809 7.97752 14.4659 9.24432 13.5417 10.1844L10 13.6463L6.46417 10.191C5.52656 9.25442 4.99982 7.98413 4.99982 6.65959C4.99982 5.33506 5.52656 4.06477 6.46417 3.12815ZM1.66667 9.98377C1.66562 9.84648 1.69909 9.71112 1.76403 9.59012C1.82897 9.46912 1.92329 9.36634 2.03833 9.29121C2.15868 9.21232 2.29732 9.16568 2.44092 9.15576C2.58453 9.14585 2.72827 9.173 2.85833 9.23461L4.05333 9.66579C4.37305 10.2982 4.79132 10.8759 5.2925 11.3772L10 15.977L14.7142 11.3714C15.1777 10.909 15.5708 10.3812 15.8808 9.8048L17.7283 10.4216C17.9023 10.4713 18.0554 10.5763 18.1644 10.7206C18.2734 10.8649 18.3324 11.0408 18.3325 11.2215V17.8383L13.3333 16.618L6.68333 18.2828L1.66667 16.8477V9.98377Z"/>
</svg>
