<svg width="20" height="20" viewBox="0 0 20 20" xmlns="http://www.w3.org/2000/svg">
    <g clip-path="url(#clip0_8430_1656)">
        <path fill-rule="evenodd" clip-rule="evenodd" d="M9.99994 2.41708L9.09335 3.48712C8.55757 4.11951 7.7104 4.39477 6.90524 4.19808L5.54284 3.86528L5.43836 5.26384C5.37661 6.09037 4.85303 6.81102 4.08603 7.12516L2.78821 7.65671L3.52573 8.84958C3.9616 9.55456 3.9616 10.4453 3.52573 11.1503L2.78821 12.3432L4.08603 12.8747C4.85303 13.1889 5.37661 13.9095 5.43836 14.736L5.54284 16.1346L6.90524 15.8018C7.7104 15.6051 8.55757 15.8804 9.09335 16.5128L9.99994 17.5828L10.9065 16.5128C11.4423 15.8804 12.2895 15.6051 13.0946 15.8018L14.457 16.1346L14.5615 14.736C14.6233 13.9095 15.1469 13.1889 15.9138 12.8747L17.2117 12.3432L16.4741 11.1503C16.0383 10.4453 16.0383 9.55456 16.4741 8.84958L17.2117 7.65671L15.9138 7.12516C15.1468 6.81101 14.6233 6.09037 14.5615 5.26384L14.457 3.86528L13.0946 4.19808C12.2895 4.39477 11.4423 4.11951 10.9065 3.48712L9.99994 2.41708ZM10.4768 0.562781C10.2272 0.268136 9.77271 0.268136 9.52308 0.562781L7.9012 2.47708C7.74812 2.65776 7.50607 2.73641 7.27603 2.68021L4.8387 2.08483C4.46355 1.99319 4.0959 2.2603 4.06713 2.64541L3.8802 5.14743C3.86256 5.38358 3.71296 5.58948 3.49382 5.67923L1.17202 6.63018C0.814657 6.77654 0.674224 7.20875 0.877306 7.53722L2.19673 9.67127C2.32126 9.87269 2.32126 10.1272 2.19673 10.3286L0.877306 12.4627C0.674224 12.7911 0.814657 13.2233 1.17202 13.3697L3.49382 14.3207C3.71296 14.4104 3.86256 14.6163 3.8802 14.8525L4.06713 17.3545C4.0959 17.7396 4.46355 18.0067 4.8387 17.9151L7.27603 17.3197C7.50607 17.2635 7.74812 17.3421 7.9012 17.5228L9.52308 19.4371C9.77271 19.7317 10.2272 19.7317 10.4768 19.4371L12.0987 17.5228C12.2518 17.3421 12.4938 17.2635 12.7238 17.3197L15.1612 17.9151C15.5363 18.0067 15.904 17.7396 15.9328 17.3545L16.1197 14.8525C16.1373 14.6163 16.2869 14.4104 16.5061 14.3207L18.8279 13.3697C19.1852 13.2233 19.3257 12.7911 19.1226 12.4627L17.8031 10.3286C17.6786 10.1272 17.6786 9.87269 17.8031 9.67127L19.1226 7.53722C19.3257 7.20875 19.1852 6.77654 18.8279 6.63018L16.5061 5.67923C16.2869 5.58948 16.1373 5.38358 16.1197 5.14743L15.9328 2.64541C15.904 2.2603 15.5363 1.99319 15.1612 2.08483L12.7238 2.68021C12.4938 2.73641 12.2518 2.65776 12.0987 2.47708L10.4768 0.562781Z"/>
        <path fill-rule="evenodd" clip-rule="evenodd" d="M13.2453 7.68307L7.50009 13.4283L6.61621 12.5444L12.3615 6.79919L13.2453 7.68307Z"/>
        <path d="M8.75 7.8125C8.75 8.33027 8.33027 8.75 7.8125 8.75C7.29473 8.75 6.875 8.33027 6.875 7.8125C6.875 7.29473 7.29473 6.875 7.8125 6.875C8.33027 6.875 8.75 7.29473 8.75 7.8125Z"/>
        <path d="M13.125 12.1875C13.125 12.7053 12.7053 13.125 12.1875 13.125C11.6697 13.125 11.25 12.7053 11.25 12.1875C11.25 11.6697 11.6697 11.25 12.1875 11.25C12.7053 11.25 13.125 11.6697 13.125 12.1875Z"/>
    </g>
    <defs>
        <clipPath id="clip0_8430_1656">
            <rect width="20" height="20"/>
        </clipPath>
    </defs>
</svg>
