<svg width="20" height="20" viewBox="0 0 20 20" xmlns="http://www.w3.org/2000/svg">
<g clip-path="url(#clip0_4106_9136)">
<path fill-rule="evenodd" clip-rule="evenodd" d="M2.86505 12.3988C2.70135 12.3988 2.56865 12.5315 2.56865 12.6952V17.5899C2.56865 17.7536 2.70135 17.8863 2.86505 17.8863H7.75975C7.92345 17.8863 8.05615 17.7536 8.05615 17.5899V12.6952C8.05615 12.5315 7.92345 12.3988 7.75975 12.3988H2.86505ZM1.18115 12.6952C1.18115 11.7652 1.93506 11.0113 2.86505 11.0113H7.75975C8.68974 11.0113 9.44365 11.7652 9.44365 12.6952V17.5899C9.44365 18.5199 8.68974 19.2738 7.75975 19.2738H2.86505C1.93506 19.2738 1.18115 18.5199 1.18115 17.5899V12.6952Z" />
<path fill-rule="evenodd" clip-rule="evenodd" d="M12.1093 12.3988C12.0178 12.3988 11.9437 12.4729 11.9437 12.5644V17.7207C11.9437 17.8121 12.0178 17.8863 12.1093 17.8863H17.2655C17.357 17.8863 17.4312 17.8121 17.4312 17.7207V12.5644C17.4312 12.4729 17.357 12.3988 17.2655 12.3988H12.1093ZM10.5562 12.5644C10.5562 11.7067 11.2515 11.0113 12.1093 11.0113H17.2655C18.1233 11.0113 18.8187 11.7067 18.8187 12.5644V17.7207C18.8187 18.5784 18.1233 19.2738 17.2655 19.2738H12.1093C11.2515 19.2738 10.5562 18.5784 10.5562 17.7207V12.5644Z" />
<path fill-rule="evenodd" clip-rule="evenodd" d="M2.56865 2.47185V7.95935H8.05615V2.47185H2.56865ZM1.18115 2.30743C1.18115 1.63194 1.72874 1.08435 2.40423 1.08435H8.22058C8.89606 1.08435 9.44365 1.63194 9.44365 2.30743V8.12377C9.44365 8.79926 8.89606 9.34685 8.22058 9.34685H2.40423C1.72874 9.34685 1.18115 8.79926 1.18115 8.12377V2.30743Z"/>
<path fill-rule="evenodd" clip-rule="evenodd" d="M11.6391 5.19449C11.6208 5.21274 11.6208 5.24234 11.6391 5.26059L15.0113 8.6328C15.0295 8.65105 15.0591 8.65105 15.0774 8.6328L18.4496 5.26059C18.4678 5.24234 18.4678 5.21274 18.4496 5.19449L15.0774 1.82228C15.0591 1.80403 15.0295 1.80403 15.0113 1.82228L11.6391 5.19449ZM10.658 6.2417C10.0979 5.68159 10.0979 4.77348 10.658 4.21338L14.0302 0.841171C14.5903 0.281066 15.4984 0.281066 16.0585 0.841171L19.4307 4.21338C19.9908 4.77348 19.9908 5.68159 19.4307 6.2417L16.0585 9.61391C15.4984 10.174 14.5903 10.174 14.0302 9.61391L10.658 6.2417Z" />
</g>
<defs>
<clipPath id="clip0_4106_9136">
<rect width="20" height="20" fill="white"/>
</clipPath>
</defs>
</svg>
